<?xml version="1.0" encoding="utf-8"?>
<!-- Generator: Adobe Illustrator 27.9.0, SVG Export Plug-In . SVG Version: 6.00 Build 0)  -->
<svg version="1.1" id="Layer_1" xmlns="http://www.w3.org/2000/svg" xmlns:xlink="http://www.w3.org/1999/xlink" x="0px" y="0px"
	 viewBox="0 0 814 665" style="enable-background:new 0 0 814 665;" xml:space="preserve">
<style type="text/css">
	.st0{fill:#E65540;}
</style>
<g>
	<path class="st0" d="M577.8,213.8L407,64.6L236.2,213.8L207,184.6L407,9.4l200,175.2L577.8,213.8z M567,275.8L405,413L247,274.2
		v-29.6l160-140l160,140V275.8z M447,327v-68h-80v68H447z M377.8,488.2L207,339L36.2,488.2L7,459l200-175.2L407,459L377.8,488.2z
		 M777.8,488.2L607,339L436.2,488.2L407,459l200-175.2L807,459L777.8,488.2z M207,379l160,140v140H47V519L207,379z M607,379l160,140
		v140H447V519L607,379z M247,619v-80h-80v80H247z M647,619v-80h-80v80H647z"/>
</g>
</svg>
